PathFileType	4	(X/Y/Z)	C:\Users\dbl\Desktop\20210112\20210112\bx_n_5_901.trc
DataRate	CameraRate	NumFrames	NumMarkers	Units	OrigDataRate	OrigDataStartFrame	OrigNumFrames
50.00	50.00	       8	43	mm	50.00	1	       470
Frame#	Time	Top.Head			R.Acromium			L.Acromium			Sternum			R.ASIS			L.ASIS			V.Sacral			R.Thigh.Upper			R.Thigh.Front			R.Thigh.Rear			R.Knee.Lat			R.Knee.Med			R.Shank.Upper			R.Shank.Front			R.Shank.Rear			R.Ankle.Lat			R.Midfoot.Lat			R.Toe.Lat			R.Toe.Tip			R.Toe.Med			R.Ankle.Med			R.Midfoot.Sup			R.Heel			L.Thigh.Upper			L.Thigh.Front			L.Thigh.Rear			L.Knee.Lat			L.Knee.Med			L.Shank.Upper			L.Shank.Front			L.Shank.Rear			L.Ankle.Lat			L.Midfoot.Lat			L.Toe.Lat			L.Toe.Tip			L.Toe.Med			L.Ankle.Med			L.Midfoot.Sup			L.Heel			origin1 front left			origin2 front right			origin 3 back right			origin 4 back leftt			
		X1	Y1	Z1	X2	Y2	Z2	X3	Y3	Z3	X4	Y4	Z4	X5	Y5	Z5	X6	Y6	Z6	X7	Y7	Z7	X8	Y8	Z8	X9	Y9	Z9	X10	Y10	Z10	X11	Y11	Z11	X12	Y12	Z12	X13	Y13	Z13	X14	Y14	Z14	X15	Y15	Z15	X16	Y16	Z16	X17	Y17	Z17	X18	Y18	Z18	X19	Y19	Z19	X20	Y20	Z20	X21	Y21	Z21	X22	Y22	Z22	X23	Y23	Z23	X24	Y24	Z24	X25	Y25	Z25	X26	Y26	Z26	X27	Y27	Z27	X28	Y28	Z28	X29	Y29	Z29	X30	Y30	Z30	X31	Y31	Z31	X32	Y32	Z32	X33	Y33	Z33	X34	Y34	Z34	X35	Y35	Z35	X36	Y36	Z36	X37	Y37	Z37	X38	Y38	Z38	X39	Y39	Z39	X40	Y40	Z40	X41	Y41	Z41	X42	Y42	Z42	X43	Y43	Z43	

1	0.000	-642.94397	118.50763	1847.65039	-674.21619	-73.94479	1534.93250	-708.33264	290.44208	1527.28772	-590.81342	107.82681	1354.25171	-581.73938	-4.84462	1051.56958	-595.67157	243.61041	1062.63525	-788.12415	89.85130	1057.87378	-650.53015	-72.97216	871.07220	-577.73816	-5.20933	800.79639	-674.77661	-63.31588	755.67157	-703.21234	-36.94263	615.61462	-653.77985	39.45582	539.05975	-713.43976	-35.15652	568.90643	-664.27386	12.85445	519.66620	-757.57758	-47.28662	489.44113	-758.58575	-20.44797	207.07420	-648.59863	-67.95198	161.87346	-605.80511	-73.02463	158.08415	-547.66638	-23.94292	163.96169	-599.45880	27.55925	167.60686	-718.64069	69.42166	217.01268	-674.39850	53.07809	159.92691	-792.86865	38.17427	174.67509	-682.49866	285.66656	871.76941	-586.12280	224.53856	790.16833	-692.01367	271.02441	742.78333	-725.09949	251.44817	642.27258	-689.24634	144.42624	574.85211	-727.39990	248.13275	575.98145	-673.77710	206.38109	533.98499	-767.71948	257.68201	502.64157	-767.66315	227.00639	205.54347	-659.77557	297.74146	158.04993	-623.74182	306.30627	158.83150	-555.40747	255.50085	164.47681	-591.29767	217.68716	174.02182	-712.82739	153.55028	216.50822	-675.05554	171.55734	157.49857	-795.83246	178.61591	184.19087	-528.25195	304.42795	146.47839	-517.83649	-72.62013	143.37816	-875.95648	-78.79716	141.44162	-882.71997	296.25824	144.64258	
2	0.020	-642.27441	118.69183	1847.63879	-673.94299	-73.80695	1534.94092	-707.87164	290.87445	1527.24731	-590.58673	107.99741	1354.30359	-581.74347	-4.84987	1051.57971	-595.64813	243.64450	1062.56543	-788.10181	90.04913	1057.84509	-650.48291	-72.90881	871.06250	-577.70892	-5.24618	800.82648	-674.72156	-63.22731	755.71759	-703.17932	-36.97705	615.61346	-653.72247	39.53512	539.02734	-713.41406	-35.11664	568.92755	-664.25006	12.93127	519.61200	-757.55212	-47.26792	489.47742	-758.65729	-20.48370	207.08360	-648.63550	-67.96142	161.83786	-605.79974	-73.08418	158.18567	-547.66693	-23.94726	163.94456	-599.51147	27.54407	167.64609	-718.64722	69.42355	217.00296	-674.39215	53.07129	159.88922	-792.87012	38.22243	174.65558	-682.31268	285.91254	871.89630	-586.08002	224.60352	790.18378	-691.93555	271.06137	742.76740	-725.06274	251.49377	642.32056	-689.26184	144.48531	574.77490	-727.37537	248.10919	575.92468	-673.73920	206.39417	534.00836	-767.67395	257.68427	502.59543	-767.65851	227.04633	205.57309	-659.78284	297.68927	158.02664	-623.70886	306.28394	158.86444	-555.38855	255.45552	164.46422	-591.32538	217.68195	174.03636	-712.80475	153.56544	216.56056	-674.99792	171.50862	157.61060	-795.85181	178.59315	184.17747	-528.25507	304.37817	146.51994	-517.78607	-72.63199	143.42940	-875.94275	-78.79076	141.41154	-882.63818	296.21432	144.66736	
3	0.040	-641.59656	118.87942	1847.62817	-673.66162	-73.66910	1534.95728	-707.41925	291.25485	1527.21326	-590.36224	108.15831	1354.35132	-581.75085	-4.85131	1051.59534	-595.62451	243.68980	1062.51294	-788.08179	90.23721	1057.82239	-650.44574	-72.83840	871.05261	-577.68195	-5.27191	800.84650	-674.66760	-63.12632	755.76245	-703.14532	-36.99982	615.61835	-653.66272	39.61664	538.98193	-713.37799	-35.07670	568.94244	-664.22253	13.00691	519.57074	-757.52478	-47.25207	489.51263	-758.69885	-20.51756	207.10138	-648.66541	-67.96655	161.81081	-605.79694	-73.13531	158.27145	-547.66266	-23.94753	163.93007	-599.55933	27.53359	167.67197	-718.65350	69.42470	216.99393	-674.38684	53.06692	159.85333	-792.88025	38.25954	174.64685	-682.13867	286.13763	872.01331	-586.02808	224.67892	790.20319	-691.84839	271.11475	742.75818	-725.01685	251.54370	642.36499	-689.26410	144.53998	574.72028	-727.34924	248.08936	575.87836	-673.70520	206.41649	534.02380	-767.62280	257.69299	502.55139	-767.65533	227.08183	205.59563	-659.78766	297.64526	158.00555	-623.68274	306.26675	158.88852	-555.37170	255.41505	164.45729	-591.35278	217.67860	174.04556	-712.78693	153.57722	216.60184	-674.94849	171.46989	157.70421	-795.86707	178.57170	184.16412	-528.25806	304.33655	146.55518	-517.73889	-72.64713	143.46872	-875.92950	-78.78294	141.38249	-882.56970	296.17853	144.68719	
4	0.060	-640.89691	119.07288	1847.61804	-673.36285	-73.53098	1534.98572	-706.97656	291.54922	1527.19128	-590.13940	108.30174	1354.39099	-581.76257	-4.84317	1051.61743	-595.59814	243.75488	1062.49011	-788.06732	90.40994	1057.81104	-650.42682	-72.75236	871.04126	-577.66071	-5.27886	800.85004	-674.61884	-63.00384	755.80328	-703.10956	-37.00389	615.63361	-653.60046	39.70122	538.91754	-713.32587	-35.03608	568.94733	-664.19061	13.08060	519.54987	-757.49500	-47.23905	489.54514	-758.69012	-20.54815	207.13327	-648.68378	-67.96431	161.79802	-605.79767	-73.17181	158.33128	-547.65021	-23.94133	163.92027	-599.59827	27.53104	167.67677	-718.65979	69.42469	216.98564	-674.38354	53.06721	159.82048	-792.90405	38.27862	174.65483	-681.98547	286.32568	872.11212	-585.96075	224.77269	790.22986	-691.74634	271.19614	742.75952	-724.95673	251.60043	642.40302	-689.24268	144.58711	574.70209	-727.32117	248.07574	575.84875	-673.67682	206.45319	534.02637	-767.56256	257.71365	502.51163	-767.65405	227.10989	205.60712	-659.78992	297.61563	157.98936	-623.66766	306.25763	158.89856	-555.35803	255.38272	164.45973	-591.37976	217.67821	174.04671	-712.77710	153.58353	216.62497	-674.91443	171.44855	157.76564	-795.87549	178.55270	184.15143	-528.25983	304.30893	146.58031	-517.69830	-72.66664	143.48824	-875.91681	-78.77261	141.35487	-882.52344	296.15591	144.69878	
5	0.080	-640.15454	119.27335	1847.60547	-673.03632	-73.39254	1535.02380	-706.53375	291.75104	1527.18628	-589.91339	108.42364	1354.41992	-581.77673	-4.81681	1051.63977	-595.56384	243.84384	1062.50012	-788.06268	90.56834	1057.81384	-650.43042	-72.64140	871.02612	-577.64966	-5.26476	800.83630	-674.58362	-62.85677	755.83527	-703.07153	-36.98920	615.66089	-653.53918	39.78759	538.83881	-713.25958	-34.99344	568.94244	-664.15833	13.15252	519.54852	-757.46466	-47.22480	489.57257	-758.62805	-20.57453	207.18002	-648.68976	-67.95371	161.80093	-605.80103	-73.19119	158.36327	-547.62909	-23.92870	163.91640	-599.62549	27.53723	167.66154	-718.66656	69.42348	216.97729	-674.38306	53.07361	159.79092	-792.94043	38.27901	174.67775	-681.85693	286.46902	872.18665	-585.87726	224.88853	790.26617	-691.62982	271.30957	742.77094	-724.88379	251.66377	642.43237	-689.19263	144.62628	574.72040	-727.29260	248.06908	575.83588	-673.65332	206.50337	534.01532	-767.49298	257.74976	502.47833	-767.65356	227.12975	205.60811	-659.79266	297.60318	157.98077	-623.66394	306.25629	158.89485	-555.34747	255.35951	164.47211	-591.40637	217.68040	174.04097	-712.77551	153.58432	216.62918	-674.90027	171.44733	157.78941	-795.87665	178.53731	184.14084	-528.25879	304.29755	146.59523	-517.66699	-72.68822	143.48677	-875.90448	-78.75932	141.32831	-882.50153	296.14679	144.70149	
6	0.100	-639.34290	119.48037	1847.58508	-672.67108	-73.25487	1535.06348	-706.07349	291.87863	1527.20105	-589.67493	108.52478	1354.43616	-581.78918	-4.76156	1051.65015	-595.51581	243.95583	1062.53650	-788.07166	90.71958	1057.83142	-650.45667	-72.49911	871.00519	-577.65430	-5.23241	800.81012	-674.57257	-62.68932	755.85364	-703.03235	-36.96196	615.69800	-653.48553	39.87242	538.75873	-713.18799	-34.94738	568.93170	-664.13342	13.22426	519.55859	-757.43817	-47.20252	489.59259	-758.52802	-20.59580	207.23604	-648.68555	-67.93614	161.81686	-605.80475	-73.19495	158.37270	-547.60181	-23.91181	163.91846	-599.63953	27.55054	167.63553	-718.67468	69.42134	216.96767	-674.38550	53.08595	159.76389	-792.98218	38.26609	174.70674	-681.75330	286.57010	872.23291	-585.78210	225.02599	790.31268	-691.50708	271.45169	742.78827	-724.80524	251.73126	642.45209	-689.11652	144.66096	574.76257	-727.26636	248.06911	575.83405	-673.63257	206.56157	533.99438	-767.41754	257.80255	502.45309	-767.65204	227.14307	205.60274	-659.80084	297.60693	157.98108	-623.66870	306.26038	158.88193	-555.33899	255.34444	164.49191	-591.43201	217.68362	174.03256	-712.77972	153.58150	216.61966	-674.90607	171.46332	157.77998	-795.87225	178.52670	184.13440	-528.25385	304.30112	146.60316	-517.64648	-72.70658	143.47025	-875.89166	-78.74330	141.30190	-882.49976	296.14777	144.69763	
7	0.120	-638.43506	119.69186	1847.55042	-672.25751	-73.12109	1535.09448	-705.57697	291.96338	1527.23694	-589.41150	108.61082	1354.43933	-581.79578	-4.66739	1051.63367	-595.45093	244.08607	1062.58435	-788.09576	90.87418	1057.86255	-650.50220	-72.32658	870.97925	-577.67938	-5.18776	800.77966	-674.59497	-62.51263	755.85681	-702.99506	-36.93133	615.73895	-653.44720	39.95111	538.69305	-713.12433	-34.89754	568.92175	-664.12494	13.29886	519.56848	-757.42169	-47.16568	489.60419	-758.41956	-20.61085	207.29027	-648.67456	-67.91483	161.84061	-605.80688	-73.18770	158.36830	-547.57312	-23.89384	163.92532	-599.64075	27.56762	167.61206	-718.68457	69.41855	216.95615	-674.39038	53.10193	159.73807	-793.01862	38.24862	174.72939	-681.67340	286.64038	872.24866	-585.68396	225.18150	790.36823	-691.39398	271.61487	742.80597	-724.73132	251.79947	642.46198	-689.02600	144.69916	574.80890	-727.24548	248.07608	575.83478	-673.61377	206.62149	533.96936	-767.34222	257.87140	502.43634	-767.64868	227.15332	205.59599	-659.81854	297.62231	157.98895	-623.67767	306.26721	158.86581	-555.33185	255.33571	164.51451	-591.45471	217.68573	174.02644	-712.78607	153.57816	216.60503	-674.92706	171.48875	157.75049	-795.86542	178.52225	184.13399	-528.24561	304.31580	146.60866	-517.63605	-72.71526	143.44965	-875.87750	-78.72544	141.27498	-882.50964	296.15405	144.69170	
8	0.140	-637.40961	119.90356	1847.49609	-671.78894	-72.99597	1535.10791	-705.02985	292.03540	1527.29321	-589.10974	108.69069	1354.42969	-581.79486	-4.52832	1051.57935	-595.37128	244.22809	1062.62659	-788.13293	91.04183	1057.90564	-650.56195	-72.13497	870.95386	-577.72760	-5.13755	800.75323	-674.65497	-62.34250	755.84821	-702.96594	-36.90522	615.77582	-653.43036	40.01878	538.65283	-713.08154	-34.84560	568.91949	-664.14001	13.38006	519.56818	-757.42188	-47.11081	489.60861	-758.33582	-20.61879	207.33005	-648.66003	-67.89376	161.86642	-605.80664	-73.17536	158.35814	-547.54865	-23.87780	163.93494	-599.63116	27.58449	167.60274	-718.69556	69.41523	216.94339	-674.39642	53.11760	159.71254	-793.03973	38.23531	174.73483	-681.61823	286.69720	872.23297	-585.59412	225.35014	790.42932	-691.31116	271.79095	742.81927	-724.67145	251.86519	642.46252	-688.94080	144.75232	574.84052	-727.23267	248.09204	575.83014	-673.59991	206.68001	533.94604	-767.27368	257.95422	502.42667	-767.64410	227.16455	205.59061	-659.84656	297.64267	158.00050	-623.68750	306.27533	158.85110	-555.32611	255.33182	164.53467	-591.47137	217.68506	174.02583	-712.79120	153.57758	216.59367	-674.95453	171.51334	157.71870	-795.85968	178.52515	184.14041	-528.23700	304.33679	146.61548	-517.63263	-72.70911	143.43716	-875.86139	-78.70711	141.24809	-882.52246	296.16202	144.68880	
